<?xml version="1.0" encoding="utf-8"?>
<!-- Generator: Adobe Illustrator 21.1.0, SVG Export Plug-In . SVG Version: 6.00 Build 0)  -->
<svg version="1.1" id="Layer_1" xmlns="http://www.w3.org/2000/svg" xmlns:xlink="http://www.w3.org/1999/xlink" x="0px" y="0px"
	 viewBox="0 0 334 10" style="enable-background:new 0 0 334 10;" xml:space="preserve">
<style type="text/css">
	.st0{fill:#FFFFFF;}
</style>
<g>
	<g>
		<path class="st0" d="M18.6,1c9.3,0,9.3,9,18.6,9H0c4.5,0,7-2.3,9.3-4.5C11.6,3.2,13.9,1,18.6,1z"/>
		<path class="st0" d="M55.6,1c9.3,0,9.3,9,18.6,9H37.2C46.3,10,46.3,1,55.6,1z"/>
		<path class="st0" d="M92.8,1c9.3,0,9.3,9,18.6,9H74.2C83.5,10,83.5,1,92.8,1z"/>
		<path class="st0" d="M129.9,1c9.3,0,9.3,9,18.6,9h-37.2C120.7,10,120.7,1,129.9,1z"/>
		<path class="st0" d="M167,1c9.3,0,9.3,9,18.6,9h-37.2C157.7,10,157.7,1,167,1z"/>
		<path class="st0" d="M204.2,1c9.3,0,9.3,9,18.6,9h-37.2C194.9,10,194.9,1,204.2,1z"/>
		<path class="st0" d="M241.2,1c9.3,0,9.3,9,18.6,9h-37.2C232,10,232,1,241.2,1z"/>
		<path class="st0" d="M278.3,1c9.3,0,9.3,9,18.6,9h-37.2C269.1,10,269.1,1,278.3,1z"/>
		<path class="st0" d="M315.4,1c9.3,0,9.3,9,18.6,9h-37.2C306.1,10,306.1,1,315.4,1z"/>
	</g>
</g>
</svg>
