<?xml version="1.0" encoding="utf-8"?>
<!-- Generator: Adobe Illustrator 21.1.0, SVG Export Plug-In . SVG Version: 6.00 Build 0)  -->
<svg version="1.1" id="Слой_1" xmlns="http://www.w3.org/2000/svg" xmlns:xlink="http://www.w3.org/1999/xlink" x="0px" y="0px"
	 viewBox="0 0 768 10" style="enable-background:new 0 0 768 10;" xml:space="preserve">
<style type="text/css">
	.st0{fill:#FFFFFF;}
</style>
<g>
	<g>
		<g>
			<path class="st0" d="M96,0.7c9.6,0,9.6,9.3,19.2,9.3H76.8c4.7,0,7.2-2.4,9.6-4.6C88.9,3,91.3,0.7,96,0.7z"/>
			<path class="st0" d="M134.4,0.7c9.6,0,9.6,9.3,19.2,9.3h-38.4C124.8,10,124.8,0.7,134.4,0.7z"/>
			<path class="st0" d="M172.8,0.7c9.6,0,9.6,9.3,19.2,9.3h-38.4C163.2,10,163.2,0.7,172.8,0.7z"/>
			<path class="st0" d="M211.3,0.7c9.6,0,9.6,9.3,19.2,9.3h-38.4C201.7,10,201.7,0.7,211.3,0.7z"/>
			<path class="st0" d="M249.7,0.7c9.6,0,9.6,9.3,19.2,9.3h-38.4C240.1,10,240.1,0.7,249.7,0.7z"/>
			<path class="st0" d="M288.1,0.7c9.6,0,9.6,9.3,19.2,9.3h-38.4C278.5,10,278.5,0.7,288.1,0.7z"/>
			<path class="st0" d="M326.4,0.7c9.6,0,9.6,9.3,19.2,9.3h-38.4C316.9,10,316.9,0.7,326.4,0.7z"/>
			<path class="st0" d="M364.8,0.7c9.6,0,9.6,9.3,19.2,9.3h-38.4C355.2,10,355.2,0.7,364.8,0.7z"/>
			<path class="st0" d="M403.2,0.7c9.6,0,9.6,9.3,19.2,9.3H384C393.6,10,393.6,0.7,403.2,0.7z"/>
		</g>
		<g>
			<path class="st0" d="M441.6,0.7c9.6,0,9.6,9.3,19.2,9.3h-38.4c4.7,0,7.2-2.4,9.6-4.6C434.5,3,436.9,0.7,441.6,0.7z"/>
			<path class="st0" d="M480,0.7c9.6,0,9.6,9.3,19.2,9.3h-38.4C470.4,10,470.4,0.7,480,0.7z"/>
			<path class="st0" d="M518.4,0.7c9.6,0,9.6,9.3,19.2,9.3h-38.4C508.8,10,508.8,0.7,518.4,0.7z"/>
			<path class="st0" d="M556.8,0.7c9.6,0,9.6,9.3,19.2,9.3h-38.4C547.2,10,547.2,0.7,556.8,0.7z"/>
			<path class="st0" d="M595.3,0.7c9.6,0,9.6,9.3,19.2,9.3h-38.4C585.7,10,585.7,0.7,595.3,0.7z"/>
			<path class="st0" d="M633.7,0.7c9.6,0,9.6,9.3,19.2,9.3h-38.4C624.1,10,624.1,0.7,633.7,0.7z"/>
			<path class="st0" d="M672,0.7c9.6,0,9.6,9.3,19.2,9.3h-38.4C662.5,10,662.5,0.7,672,0.7z"/>
			<path class="st0" d="M710.4,0.7c9.6,0,9.6,9.3,19.2,9.3h-38.4C700.8,10,700.8,0.7,710.4,0.7z"/>
			<path class="st0" d="M748.8,0.7c9.6,0,9.6,9.3,19.2,9.3h-38.4C739.2,10,739.2,0.7,748.8,0.7z"/>
		</g>
	</g>
	<g>
		<g>
			<path class="st0" d="M19.2,0.7c9.6,0,9.6,9.3,19.2,9.3H0C9.6,10,9.6,0.7,19.2,0.7z"/>
			<path class="st0" d="M57.6,0.7c9.6,0,9.6,9.3,19.2,9.3H38.4C48,10,48,0.7,57.6,0.7z"/>
		</g>
	</g>
</g>
</svg>
